<svg width="32" height="32" viewBox="0 0 32 32" fill="none" xmlns="http://www.w3.org/2000/svg">
    <mask id="path-1-outside-1_16347_5420" maskUnits="userSpaceOnUse" x="4" y="0" width="24" height="32" fill="black">
        <rect fill="white" x="4" width="24" height="32"/>
        <path d="M26 12C26 23 17 30 16 30C15 30 6 22 6 12C6 6.47715 10.4772 2 16 2C21.5228 2 26 6.47715 26 12Z"/>
    </mask>
    <path d="M26 12C26 23 17 30 16 30C15 30 6 22 6 12C6 6.47715 10.4772 2 16 2C21.5228 2 26 6.47715 26 12Z" fill="#0C385F"/>
    <path d="M24 12C24 16.94 21.9787 21.0253 19.7827 23.9148C18.6872 25.3563 17.5714 26.4682 16.6969 27.2039C16.2573 27.5737 15.9011 27.8295 15.6594 27.9801C15.601 28.0165 15.5539 28.0438 15.5182 28.0634C15.5005 28.073 15.4868 28.0802 15.4768 28.0852C15.4719 28.0876 15.4681 28.0895 15.4655 28.0907C15.4629 28.0919 15.4617 28.0925 15.4617 28.0924C15.4618 28.0924 15.4635 28.0917 15.4668 28.0903C15.47 28.089 15.4752 28.0869 15.4823 28.0842C15.4956 28.0791 15.5201 28.0703 15.5544 28.0602C15.6027 28.0461 15.767 28 16 28V32C16.5119 32 16.9345 31.8155 17.0925 31.745C17.3239 31.6416 17.5557 31.5114 17.7742 31.3754C18.2161 31.1001 18.7271 30.7232 19.2719 30.2648C20.3661 29.3443 21.6878 28.0187 22.9673 26.3352C25.5213 22.9747 28 18.06 28 12H24ZM16 28C16.2703 28 16.4608 28.0611 16.5154 28.0793C16.5548 28.0924 16.5831 28.104 16.5988 28.1107C16.6149 28.1176 16.6237 28.1221 16.6245 28.1225C16.6249 28.1227 16.6075 28.1138 16.5704 28.0909C16.5343 28.0687 16.4866 28.0376 16.427 27.9961C16.1799 27.8238 15.8176 27.5342 15.3702 27.1224C14.4808 26.3035 13.3494 25.0884 12.2398 23.57C9.99942 20.5042 8 16.4146 8 12H4C4 17.5854 6.50058 22.4958 9.01022 25.93C10.2756 27.6616 11.5817 29.0715 12.661 30.0651C13.198 30.5595 13.7029 30.9731 14.1394 31.2774C14.3547 31.4275 14.587 31.5746 14.8213 31.6929C14.9679 31.767 15.4284 32 16 32V28ZM8 12C8 7.58172 11.5817 4 16 4V0C9.37258 0 4 5.37258 4 12H8ZM16 4C20.4183 4 24 7.58172 24 12H28C28 5.37258 22.6274 0 16 0V4Z" fill="white" mask="url(#path-1-outside-1_16347_5420)"/>
    <circle cx="16" cy="12" r="6" fill="white"/>
</svg>
